<svg width="6085" height="1769" viewBox="0 0 6085 1769" fill="none" xmlns="http://www.w3.org/2000/svg">
<path d="M700.326 63.2723C367.645 79.2714 198.84 200.234 156.946 259.625L134.768 325.076L101.5 425.071L241.965 565.063C294.332 598.394 387.606 641.059 341.77 545.064C295.933 449.069 448.351 388.709 530.289 370.528L1190.11 301.441V56L700.326 63.2723Z" fill="url(#paint0_linear_113_4)"/>
<g filter="url(#filter0_d_113_4)">
<path d="M600.522 1695.91L64.5347 1705L83.017 1657.73L371.341 1397.74C426.788 1411.68 588.323 1426.11 790.889 1372.29C993.456 1318.48 954.15 1227.45 909.176 1188.66L397.216 586.88C398.448 513.551 467.819 346.166 735.443 263.261C1003.07 180.357 1150.06 90.5436 1190.11 56V301.441C1189.71 329.131 1189.17 384.26 1190.11 383.255C1151.29 426.889 846.336 523.247 728.05 570.517C541.378 665.057 654.12 706.873 899.935 857.774C1145.75 1008.67 1279.12 1126.63 1173.47 1397.74C1088.45 1615.91 762.55 1693.49 600.522 1695.91Z" fill="url(#paint1_linear_113_4)"/>
</g>
<path d="M598.674 1157.75C645.989 1133.03 634.406 1082 622.701 1059.58C626.397 1012.31 813.069 1135.94 816.765 1139.57C819.722 1142.48 836.479 1192.9 844.488 1217.75C844.488 1244.41 839.683 1305.74 820.461 1337.74C796.435 1377.74 687.389 1472.28 423.092 1535.91C211.654 1586.82 95.955 1669.85 64.5352 1705C63.9191 1620.76 63.0566 1439.92 64.5352 1390.47C66.0137 1341.02 267.225 1277.75 367.645 1252.29C429.253 1232.29 561.709 1185.39 598.674 1157.75Z" fill="url(#paint2_linear_113_4)"/>
<g filter="url(#filter1_d_113_4)">
<path d="M576.495 1032.31C855.947 1190.84 844.488 1314.11 803.827 1355.93C845.104 1314.72 927.659 1205.03 927.659 1095.94C927.659 959.585 922.114 868.681 537.682 666.874C153.25 465.067 145.857 370.526 166.188 248.715C107.044 299.621 60.8384 434.159 60.8384 528.699C46.0526 755.96 227.179 834.137 576.495 1032.31Z" fill="url(#paint3_radial_113_4)"/>
</g>
<path d="M1809 1352.2C1739.4 1352.2 1679.4 1341 1629 1318.6C1579.4 1295.4 1533.8 1260.6 1492.2 1214.2L1614.6 1093C1641.8 1124.2 1671.8 1148.6 1704.6 1166.2C1738.2 1183 1777 1191.4 1821 1191.4C1861 1191.4 1891.8 1184.2 1913.4 1169.8C1935.8 1155.4 1947 1135.4 1947 1109.8C1947 1086.6 1939.8 1067.8 1925.4 1053.4C1911 1039 1891.8 1026.6 1867.8 1016.2C1844.6 1005.8 1818.6 995.8 1789.8 986.2C1761.8 976.6 1733.8 965.8 1705.8 953.8C1677.8 941 1651.8 925.4 1627.8 907C1604.6 887.8 1585.8 864.2 1571.4 836.2C1557 807.4 1549.8 771.4 1549.8 728.2C1549.8 676.2 1562.2 631.4 1587 593.8C1612.6 556.2 1647.8 527.8 1692.6 508.6C1737.4 488.6 1789 478.6 1847.4 478.6C1906.6 478.6 1960.6 489 2009.4 509.8C2059 530.6 2099.8 559 2131.8 595L2009.4 716.2C1983.8 689.8 1957.8 670.2 1931.4 657.4C1905.8 644.6 1876.6 638.2 1843.8 638.2C1811 638.2 1785 644.6 1765.8 657.4C1746.6 669.4 1737 687 1737 710.2C1737 731.8 1744.2 749.4 1758.6 763C1773 775.8 1791.8 787 1815 796.6C1839 806.2 1865 815.8 1893 825.4C1921.8 835 1950.2 846.2 1978.2 859C2006.2 871.8 2031.8 888.2 2055 908.2C2079 927.4 2098.2 952.2 2112.6 982.6C2127 1012.2 2134.2 1049 2134.2 1093C2134.2 1173.8 2105.4 1237.4 2047.8 1283.8C1990.2 1329.4 1910.6 1352.2 1809 1352.2ZM2472.61 1352.2C2419.01 1352.2 2371.41 1341.4 2329.81 1319.8C2289.01 1297.4 2257.01 1267 2233.81 1228.6C2210.61 1189.4 2199.01 1144.6 2199.01 1094.2V755.8H2382.61V1091.8C2382.61 1111.8 2385.81 1129 2392.21 1143.4C2399.41 1157.8 2409.81 1169 2423.41 1177C2437.01 1185 2453.41 1189 2472.61 1189C2499.81 1189 2521.41 1180.6 2537.41 1163.8C2553.41 1146.2 2561.41 1122.2 2561.41 1091.8V755.8H2745.01V1093C2745.01 1144.2 2733.41 1189.4 2710.21 1228.6C2687.01 1267 2655.01 1297.4 2614.21 1319.8C2573.41 1341.4 2526.21 1352.2 2472.61 1352.2ZM3209.48 1339L3005.48 1036.6L3208.28 755.8H3413.48L3168.68 1071.4L3174.68 995.8L3425.48 1339H3209.48ZM2836.28 1339V467.8H3019.88V1339H2836.28ZM3685.18 1351C3631.58 1351 3583.58 1337.8 3541.18 1311.4C3499.58 1285 3466.38 1249 3441.58 1203.4C3417.58 1157.8 3405.58 1105.8 3405.58 1047.4C3405.58 989 3417.58 937 3441.58 891.4C3466.38 845.8 3499.58 809.8 3541.18 783.4C3583.58 757 3631.58 743.8 3685.18 743.8C3724.38 743.8 3759.58 751.4 3790.78 766.6C3822.78 781.8 3848.78 803 3868.78 830.2C3888.78 856.6 3899.98 887 3902.38 921.4V1173.4C3899.98 1207.8 3888.78 1238.6 3868.78 1265.8C3849.58 1292.2 3823.98 1313 3791.98 1328.2C3759.98 1343.4 3724.38 1351 3685.18 1351ZM3722.38 1185.4C3761.58 1185.4 3793.18 1172.6 3817.18 1147C3841.18 1120.6 3853.18 1087.4 3853.18 1047.4C3853.18 1020.2 3847.58 996.2 3836.38 975.4C3825.98 954.6 3810.78 938.6 3790.78 927.4C3771.58 915.4 3749.18 909.4 3723.58 909.4C3697.98 909.4 3675.18 915.4 3655.18 927.4C3635.98 938.6 3620.38 954.6 3608.38 975.4C3597.18 996.2 3591.58 1020.2 3591.58 1047.4C3591.58 1073.8 3597.18 1097.4 3608.38 1118.2C3619.58 1139 3635.18 1155.4 3655.18 1167.4C3675.18 1179.4 3697.58 1185.4 3722.38 1185.4ZM3845.98 1339V1181.8L3873.58 1040.2L3845.98 898.6V755.8H4025.98V1339H3845.98ZM4516.45 1339V1006.6C4516.45 976.2 4506.85 951.8 4487.65 933.4C4469.25 914.2 4445.65 904.6 4416.85 904.6C4396.85 904.6 4379.25 909 4364.05 917.8C4348.85 925.8 4336.85 937.8 4328.05 953.8C4319.25 969 4314.85 986.6 4314.85 1006.6L4244.05 971.8C4244.05 926.2 4254.05 886.2 4274.05 851.8C4294.05 817.4 4321.65 791 4356.85 772.6C4392.85 753.4 4433.25 743.8 4478.05 743.8C4521.25 743.8 4559.25 754.2 4592.05 775C4625.65 795 4652.05 821.8 4671.25 855.4C4690.45 889 4700.05 925.8 4700.05 965.8V1339H4516.45ZM4131.25 1339V755.8H4314.85V1339H4131.25ZM5015.29 1339V491.8H5149.69L5483.29 1011.4H5414.89L5747.29 491.8H5882.89V1339H5694.49V809.8L5728.09 818.2L5510.89 1156.6H5386.09L5170.09 818.2L5202.49 809.8V1339H5015.29Z" fill="white"/>
<defs>
<filter id="filter0_d_113_4" x="4.53467" y="0" width="1265.47" height="1769" filterUnits="userSpaceOnUse" color-interpolation-filters="sRGB">
<feFlood flood-opacity="0" result="BackgroundImageFix"/>
<feColorMatrix in="SourceAlpha" type="matrix" values="0 0 0 0 0 0 0 0 0 0 0 0 0 0 0 0 0 0 127 0" result="hardAlpha"/>
<feOffset dy="4"/>
<feGaussianBlur stdDeviation="30"/>
<feComposite in2="hardAlpha" operator="out"/>
<feColorMatrix type="matrix" values="0 0 0 0 0 0 0 0 0 0 0 0 0 0 0 0 0 0 0.25 0"/>
<feBlend mode="normal" in2="BackgroundImageFix" result="effect1_dropShadow_113_4"/>
<feBlend mode="normal" in="SourceGraphic" in2="effect1_dropShadow_113_4" result="shape"/>
</filter>
<filter id="filter1_d_113_4" x="0" y="192.715" width="987.659" height="1227.21" filterUnits="userSpaceOnUse" color-interpolation-filters="sRGB">
<feFlood flood-opacity="0" result="BackgroundImageFix"/>
<feColorMatrix in="SourceAlpha" type="matrix" values="0 0 0 0 0 0 0 0 0 0 0 0 0 0 0 0 0 0 127 0" result="hardAlpha"/>
<feOffset dy="4"/>
<feGaussianBlur stdDeviation="30"/>
<feComposite in2="hardAlpha" operator="out"/>
<feColorMatrix type="matrix" values="0 0 0 0 0 0 0 0 0 0 0 0 0 0 0 0 0 0 0.25 0"/>
<feBlend mode="normal" in2="BackgroundImageFix" result="effect1_dropShadow_113_4"/>
<feBlend mode="normal" in="SourceGraphic" in2="effect1_dropShadow_113_4" result="shape"/>
</filter>
<linearGradient id="paint0_linear_113_4" x1="262.296" y1="330.53" x2="912.89" y2="130.054" gradientUnits="userSpaceOnUse">
<stop stop-color="#D9D9D9"/>
<stop offset="1" stop-color="white"/>
</linearGradient>
<linearGradient id="paint1_linear_113_4" x1="389.823" y1="1450.47" x2="1455.38" y2="269.435" gradientUnits="userSpaceOnUse">
<stop stop-color="white"/>
<stop offset="1" stop-color="white"/>
</linearGradient>
<linearGradient id="paint2_linear_113_4" x1="129.223" y1="1515.92" x2="726.232" y2="1232.66" gradientUnits="userSpaceOnUse">
<stop stop-color="white"/>
<stop offset="1" stop-color="#D9D9D9"/>
</linearGradient>
<radialGradient id="paint3_radial_113_4" cx="0" cy="0" r="1" gradientTransform="matrix(789.544 609.574 -476.499 597.885 199.456 581.424)" gradientUnits="userSpaceOnUse">
<stop stop-color="white"/>
<stop offset="1" stop-color="#D9D9D9"/>
</radialGradient>
</defs>
</svg>
