<svg width="6085" height="1769" viewBox="0 0 6085 1769" fill="none" xmlns="http://www.w3.org/2000/svg">
<path d="M700.326 63.2723C367.645 79.2714 198.84 200.234 156.946 259.625L134.768 325.076L101.5 425.071L241.965 565.063C294.332 598.394 387.606 641.059 341.77 545.064C295.933 449.069 448.351 388.709 530.289 370.528L1190.11 301.441V56L700.326 63.2723Z" fill="url(#paint0_linear_114_12)"/>
<g filter="url(#filter0_d_114_12)">
<path d="M600.522 1695.91L64.5347 1705L83.017 1657.73L371.341 1397.74C426.788 1411.68 588.323 1426.11 790.889 1372.29C993.456 1318.48 954.15 1227.45 909.176 1188.66L397.216 586.88C398.448 513.551 467.819 346.166 735.443 263.261C1003.07 180.357 1150.06 90.5436 1190.11 56V301.441C1189.71 329.131 1189.17 384.26 1190.11 383.255C1151.29 426.889 846.336 523.247 728.05 570.517C541.378 665.057 654.12 706.873 899.935 857.774C1145.75 1008.67 1279.12 1126.63 1173.47 1397.74C1088.45 1615.91 762.55 1693.49 600.522 1695.91Z" fill="url(#paint1_linear_114_12)"/>
</g>
<path d="M598.674 1157.75C645.989 1133.03 634.406 1082 622.701 1059.58C626.397 1012.31 813.069 1135.94 816.765 1139.57C819.722 1142.48 836.479 1192.9 844.488 1217.75C844.488 1244.42 839.683 1305.75 820.461 1337.74C796.435 1377.74 687.389 1472.28 423.092 1535.92C211.654 1586.82 95.955 1669.85 64.5352 1705C63.9191 1620.76 63.0566 1439.92 64.5352 1390.47C66.0137 1341.02 267.225 1277.75 367.645 1252.29C429.253 1232.3 561.709 1185.39 598.674 1157.75Z" fill="url(#paint2_linear_114_12)"/>
<g filter="url(#filter1_d_114_12)">
<path d="M576.495 1032.31C855.947 1190.85 844.488 1314.11 803.827 1355.93C845.104 1314.72 927.659 1205.03 927.659 1095.94C927.659 959.587 922.114 868.683 537.682 666.876C153.25 465.069 145.857 370.528 166.188 248.717C107.044 299.623 60.8384 434.161 60.8384 528.701C46.0526 755.962 227.179 834.139 576.495 1032.31Z" fill="url(#paint3_radial_114_12)"/>
</g>
<path d="M1809 1269.2C1739.4 1269.2 1679.4 1258 1629 1235.6C1579.4 1212.4 1533.8 1177.6 1492.2 1131.2L1614.6 1010C1641.8 1041.2 1671.8 1065.6 1704.6 1083.2C1738.2 1100 1777 1108.4 1821 1108.4C1861 1108.4 1891.8 1101.2 1913.4 1086.8C1935.8 1072.4 1947 1052.4 1947 1026.8C1947 1003.6 1939.8 984.8 1925.4 970.4C1911 956 1891.8 943.6 1867.8 933.2C1844.6 922.8 1818.6 912.8 1789.8 903.2C1761.8 893.6 1733.8 882.8 1705.8 870.8C1677.8 858 1651.8 842.4 1627.8 824C1604.6 804.8 1585.8 781.2 1571.4 753.2C1557 724.4 1549.8 688.4 1549.8 645.2C1549.8 593.2 1562.2 548.4 1587 510.8C1612.6 473.2 1647.8 444.8 1692.6 425.6C1737.4 405.6 1789 395.6 1847.4 395.6C1906.6 395.6 1960.6 406 2009.4 426.8C2059 447.6 2099.8 476 2131.8 512L2009.4 633.2C1983.8 606.8 1957.8 587.2 1931.4 574.4C1905.8 561.6 1876.6 555.2 1843.8 555.2C1811 555.2 1785 561.6 1765.8 574.4C1746.6 586.4 1737 604 1737 627.2C1737 648.8 1744.2 666.4 1758.6 680C1773 692.8 1791.8 704 1815 713.6C1839 723.2 1865 732.8 1893 742.4C1921.8 752 1950.2 763.2 1978.2 776C2006.2 788.8 2031.8 805.2 2055 825.2C2079 844.4 2098.2 869.2 2112.6 899.6C2127 929.2 2134.2 966 2134.2 1010C2134.2 1090.8 2105.4 1154.4 2047.8 1200.8C1990.2 1246.4 1910.6 1269.2 1809 1269.2ZM2472.61 1269.2C2419.01 1269.2 2371.41 1258.4 2329.81 1236.8C2289.01 1214.4 2257.01 1184 2233.81 1145.6C2210.61 1106.4 2199.01 1061.6 2199.01 1011.2V672.8H2382.61V1008.8C2382.61 1028.8 2385.81 1046 2392.21 1060.4C2399.41 1074.8 2409.81 1086 2423.41 1094C2437.01 1102 2453.41 1106 2472.61 1106C2499.81 1106 2521.41 1097.6 2537.41 1080.8C2553.41 1063.2 2561.41 1039.2 2561.41 1008.8V672.8H2745.01V1010C2745.01 1061.2 2733.41 1106.4 2710.21 1145.6C2687.01 1184 2655.01 1214.4 2614.21 1236.8C2573.41 1258.4 2526.21 1269.2 2472.61 1269.2ZM3209.48 1256L3005.48 953.6L3208.28 672.8H3413.48L3168.68 988.4L3174.68 912.8L3425.48 1256H3209.48ZM2836.28 1256V384.8H3019.88V1256H2836.28ZM3685.18 1268C3631.58 1268 3583.58 1254.8 3541.18 1228.4C3499.58 1202 3466.38 1166 3441.58 1120.4C3417.58 1074.8 3405.58 1022.8 3405.58 964.4C3405.58 906 3417.58 854 3441.58 808.4C3466.38 762.8 3499.58 726.8 3541.18 700.4C3583.58 674 3631.58 660.8 3685.18 660.8C3724.38 660.8 3759.58 668.4 3790.78 683.6C3822.78 698.8 3848.78 720 3868.78 747.2C3888.78 773.6 3899.98 804 3902.38 838.4V1090.4C3899.98 1124.8 3888.78 1155.6 3868.78 1182.8C3849.58 1209.2 3823.98 1230 3791.98 1245.2C3759.98 1260.4 3724.38 1268 3685.18 1268ZM3722.38 1102.4C3761.58 1102.4 3793.18 1089.6 3817.18 1064C3841.18 1037.6 3853.18 1004.4 3853.18 964.4C3853.18 937.2 3847.58 913.2 3836.38 892.4C3825.98 871.6 3810.78 855.6 3790.78 844.4C3771.58 832.4 3749.18 826.4 3723.58 826.4C3697.98 826.4 3675.18 832.4 3655.18 844.4C3635.98 855.6 3620.38 871.6 3608.38 892.4C3597.18 913.2 3591.58 937.2 3591.58 964.4C3591.58 990.8 3597.18 1014.4 3608.38 1035.2C3619.58 1056 3635.18 1072.4 3655.18 1084.4C3675.18 1096.4 3697.58 1102.4 3722.38 1102.4ZM3845.98 1256V1098.8L3873.58 957.2L3845.98 815.6V672.8H4025.98V1256H3845.98ZM4516.45 1256V923.6C4516.45 893.2 4506.85 868.8 4487.65 850.4C4469.25 831.2 4445.65 821.6 4416.85 821.6C4396.85 821.6 4379.25 826 4364.05 834.8C4348.85 842.8 4336.85 854.8 4328.05 870.8C4319.25 886 4314.85 903.6 4314.85 923.6L4244.05 888.8C4244.05 843.2 4254.05 803.2 4274.05 768.8C4294.05 734.4 4321.65 708 4356.85 689.6C4392.85 670.4 4433.25 660.8 4478.05 660.8C4521.25 660.8 4559.25 671.2 4592.05 692C4625.65 712 4652.05 738.8 4671.25 772.4C4690.45 806 4700.05 842.8 4700.05 882.8V1256H4516.45ZM4131.25 1256V672.8H4314.85V1256H4131.25Z" fill="#D2153D"/>
<path d="M5015.29 1256V408.8H5149.69L5483.29 928.4H5414.89L5747.29 408.8H5882.89V1256H5694.49V726.8L5728.09 735.2L5510.89 1073.6H5386.09L5170.09 735.2L5202.49 726.8V1256H5015.29Z" fill="#105E6D"/>
<defs>
<filter id="filter0_d_114_12" x="4.53467" y="0" width="1265.47" height="1769" filterUnits="userSpaceOnUse" color-interpolation-filters="sRGB">
<feFlood flood-opacity="0" result="BackgroundImageFix"/>
<feColorMatrix in="SourceAlpha" type="matrix" values="0 0 0 0 0 0 0 0 0 0 0 0 0 0 0 0 0 0 127 0" result="hardAlpha"/>
<feOffset dy="4"/>
<feGaussianBlur stdDeviation="30"/>
<feComposite in2="hardAlpha" operator="out"/>
<feColorMatrix type="matrix" values="0 0 0 0 0 0 0 0 0 0 0 0 0 0 0 0 0 0 0.25 0"/>
<feBlend mode="normal" in2="BackgroundImageFix" result="effect1_dropShadow_114_12"/>
<feBlend mode="normal" in="SourceGraphic" in2="effect1_dropShadow_114_12" result="shape"/>
</filter>
<filter id="filter1_d_114_12" x="0" y="192.717" width="987.658" height="1227.21" filterUnits="userSpaceOnUse" color-interpolation-filters="sRGB">
<feFlood flood-opacity="0" result="BackgroundImageFix"/>
<feColorMatrix in="SourceAlpha" type="matrix" values="0 0 0 0 0 0 0 0 0 0 0 0 0 0 0 0 0 0 127 0" result="hardAlpha"/>
<feOffset dy="4"/>
<feGaussianBlur stdDeviation="30"/>
<feComposite in2="hardAlpha" operator="out"/>
<feColorMatrix type="matrix" values="0 0 0 0 0 0 0 0 0 0 0 0 0 0 0 0 0 0 0.25 0"/>
<feBlend mode="normal" in2="BackgroundImageFix" result="effect1_dropShadow_114_12"/>
<feBlend mode="normal" in="SourceGraphic" in2="effect1_dropShadow_114_12" result="shape"/>
</filter>
<linearGradient id="paint0_linear_114_12" x1="262.296" y1="330.53" x2="912.89" y2="130.054" gradientUnits="userSpaceOnUse">
<stop stop-color="#D2153D"/>
<stop offset="1" stop-color="#F24557"/>
</linearGradient>
<linearGradient id="paint1_linear_114_12" x1="389.823" y1="1450.47" x2="1455.38" y2="269.435" gradientUnits="userSpaceOnUse">
<stop stop-color="#105E6D"/>
<stop offset="1" stop-color="#29C1DD"/>
</linearGradient>
<linearGradient id="paint2_linear_114_12" x1="129.223" y1="1515.92" x2="726.232" y2="1232.67" gradientUnits="userSpaceOnUse">
<stop stop-color="#F24557"/>
<stop offset="1" stop-color="#D2153D"/>
</linearGradient>
<radialGradient id="paint3_radial_114_12" cx="0" cy="0" r="1" gradientTransform="matrix(789.544 609.574 -476.499 597.885 199.456 581.426)" gradientUnits="userSpaceOnUse">
<stop stop-color="#FF5962"/>
<stop offset="1" stop-color="#D2153D"/>
</radialGradient>
</defs>
</svg>
